<svg width="427" height="320" version="1.1" xmlns="http://www.w3.org/2000/svg"><path fill="rgb(251,251,251)" stroke="rgb(251,251,251)" stroke-width="1" opacity="1" d="M 402 0 L 404.5 1 L 427 1 L 426.5 3 L 404.5 3 L 402 4 L 402 0 Z "></path><path fill="rgb(251,251,251)" stroke="rgb(251,251,251)" stroke-width="1" opacity="1" d="M 204.5 28 L 205 29.5 Q 202.8 30.8 205.5 32 L 209 32.5 L 200 33 Q 198.3 28.9 202.5 30 L 204.5 28 Z "></path><path fill="rgb(251,251,251)" stroke="rgb(251,251,251)" stroke-width="1" opacity="1" d="M 210.5 28 L 216 29 L 215.5 33 L 214.5 31 L 212.5 32 L 211.5 29 L 210.5 28 Z "></path><path fill="rgb(251,251,251)" stroke="rgb(251,251,251)" stroke-width="1" opacity="1" d="M 206.5 30 L 210 30.5 L 206.5 31 L 206.5 30 Z "></path><path fill="rgb(251,251,251)" stroke="rgb(251,251,251)" stroke-width="1" opacity="1" d="M 191.5 32 L 196 33.5 L 193.5 34 L 191.5 32 Z "></path><path fill="rgb(251,251,251)" stroke="rgb(251,251,251)" stroke-width="1" opacity="1" d="M 219.5 32 L 221 32.5 L 219 33.5 L 229.5 34 L 232 35.5 L 229.5 36 L 228.5 35 L 219.5 35 L 217 33.5 L 219.5 32 Z "></path><path fill="rgb(251,251,251)" stroke="rgb(251,251,251)" stroke-width="1" opacity="1" d="M 222.5 32 L 230 32.5 L 222.5 33 L 222.5 32 Z "></path><path fill="rgb(251,251,251)" stroke="rgb(251,251,251)" stroke-width="1" opacity="1" d="M 189.5 34 L 192 34.5 L 189.5 35 L 189.5 34 Z "></path><path fill="rgb(251,251,251)" stroke="rgb(251,251,251)" stroke-width="1" opacity="1" d="M 183.5 36 L 186 36.5 L 181.5 39 L 180.5 37 L 183.5 36 Z "></path><path fill="rgb(251,251,251)" stroke="rgb(251,251,251)" stroke-width="1" opacity="1" d="M 233.5 36 L 241 37 L 242.5 40 L 248 41 L 247 43.5 L 253.5 50 L 256 50 L 257 56 Q 260.3 54.7 259 59.5 L 262 61 L 261 64.5 L 263 67.5 L 261 68 Q 257.6 51.8 245.5 43 L 244 42.5 L 246 41.5 L 240 40 L 239.5 38 L 237.5 38 L 233.5 37 L 233.5 36 Z "></path><path fill="rgb(251,251,251)" stroke="rgb(251,251,251)" stroke-width="1" opacity="1" d="M 173.5 40 Q 175.8 39.3 175 41.5 L 176 42.5 L 168 50.5 Q 168.8 52.8 166.5 52 L 164 53.5 L 165 48 L 168.5 49 L 169 47.5 L 168 45.5 L 170.5 44 L 172.5 45 L 173.5 43 Q 171.3 43.8 172 41.5 L 173.5 40 Z "></path><path fill="rgb(251,251,251)" stroke="rgb(251,251,251)" stroke-width="1" opacity="1" d="M 160.5 59 L 159.5 61 L 158 61.5 L 158.5 63 Q 155.2 64.1 156 61.5 L 160.5 59 Z "></path><path fill="rgb(251,251,251)" stroke="rgb(251,251,251)" stroke-width="1" opacity="1" d="M 157.5 64 L 156.5 66 L 157.5 64 Z "></path><path fill="rgb(251,251,251)" stroke="rgb(251,251,251)" stroke-width="1" opacity="1" d="M 153 68 L 155 68.5 L 148.5 78 L 148 75.5 Q 146.3 70.3 151.5 72 L 153 68 Z "></path><path fill="rgb(251,251,251)" stroke="rgb(251,251,251)" stroke-width="1" opacity="1" d="M 262 69 Q 265 67.8 264 71.5 L 266 79.5 L 265 79.5 L 262 69 Z "></path><path fill="rgb(251,251,251)" stroke="rgb(251,251,251)" stroke-width="1" opacity="1" d="M 144 80 L 147 81.5 L 140.5 94 L 140 90.5 L 141 87.5 L 140 85.5 Q 141.2 83 145 84 L 144 80 Z "></path><path fill="rgb(251,251,251)" stroke="rgb(251,251,251)" stroke-width="1" opacity="1" d="M 266.5 81 L 267 83.5 L 266 83.5 L 266.5 81 Z "></path><path fill="rgb(251,251,251)" stroke="rgb(251,251,251)" stroke-width="1" opacity="1" d="M 268.5 88 L 270.5 91 L 271.5 89 L 272 90.5 L 270 94 Q 273 93 272 96 Q 269.3 97.1 270 94.5 L 268.5 88 Z "></path><path fill="rgb(251,251,251)" stroke="rgb(251,251,251)" stroke-width="1" opacity="1" d="M 136.5 96 L 137.5 99 L 138.5 97 L 139 98.5 L 136.5 105 L 136 102.5 L 137 100.5 L 136.5 96 Z "></path><path fill="rgb(251,251,251)" stroke="rgb(251,251,251)" stroke-width="1" opacity="1" d="M 271 98 L 274 98.5 L 271 100 L 271 98 Z "></path><path fill="rgb(251,251,251)" stroke="rgb(251,251,251)" stroke-width="1" opacity="1" d="M 272.5 101 L 276 107.5 L 276 109.5 L 275.5 112 L 272.5 101 Z "></path><path fill="rgb(251,251,251)" stroke="rgb(251,251,251)" stroke-width="1" opacity="1" d="M 134.5 111 L 134 112.5 L 133.5 116 L 133 112.5 L 134.5 111 Z "></path><path fill="rgb(251,251,251)" stroke="rgb(251,251,251)" stroke-width="1" opacity="1" d="M 278.5 111 L 280 115.5 L 279 115.5 L 278.5 114 L 277.5 116 L 276 113.5 L 278 113 L 278.5 111 Z "></path><path fill="rgb(251,251,251)" stroke="rgb(251,251,251)" stroke-width="1" opacity="1" d="M 133.5 117 L 134 119.5 L 133 119.5 L 133.5 117 Z "></path><path fill="rgb(251,251,251)" stroke="rgb(251,251,251)" stroke-width="1" opacity="1" d="M 278.5 117 L 280 119.5 L 278 120 L 278.5 117 Z "></path><path fill="rgb(251,251,251)" stroke="rgb(251,251,251)" stroke-width="1" opacity="1" d="M 132.5 121 L 133 123.5 L 132 123.5 L 132.5 121 Z "></path><path fill="rgb(251,251,251)" stroke="rgb(251,251,251)" stroke-width="1" opacity="1" d="M 281 124 Q 285.5 122.3 284 127.5 L 284 129.5 L 284.5 131 L 286 130.5 L 286 132.5 L 288 137.5 L 285 135.5 L 283 129.5 L 283.5 128 Q 281.3 128.8 282 126.5 L 281 124 Z "></path><path fill="rgb(251,251,251)" stroke="rgb(251,251,251)" stroke-width="1" opacity="1" d="M 131.5 132 L 132 141.5 L 131 141.5 L 130 137.5 L 131.5 132 Z "></path><path fill="rgb(251,251,251)" stroke="rgb(251,251,251)" stroke-width="1" opacity="1" d="M 288.5 139 L 296 141 L 296.5 144 L 300 142 Q 299 145 302 144 L 302 148 Q 298.7 146.7 300 151.5 L 304.5 157 L 300.5 157 L 295.5 152 L 292 152 L 292 156.5 L 287 162.5 L 288 166.5 L 280.5 183 L 279 182.5 Q 280.1 185.8 277.5 185 L 274 190.5 L 272 199 L 270 198.5 L 276 184 L 278 183.5 L 278 181.5 L 280.5 176 L 282 176.5 L 281 174.5 L 284.5 168 L 286 168.5 L 285 165.5 L 287 165.5 L 286 162.5 L 289 157.5 L 288 156.5 L 288 146.5 L 289.5 147 Q 294.8 145.8 296 148.5 L 296.5 150 L 297 147.5 L 295.5 144 L 294 144.5 L 294.5 146 L 288.5 139 Z M 291 148 L 289 153 Q 287 158 291 157 L 291 148 Z "></path><path fill="rgb(251,251,251)" stroke="rgb(251,251,251)" stroke-width="1" opacity="1" d="M 138 148 Q 141.7 146.7 140 152.5 L 139 152.5 L 138 148 Z "></path><path fill="rgb(251,251,251)" stroke="rgb(251,251,251)" stroke-width="1" opacity="1" d="M 133.5 150 L 140 162.5 L 139 165 Q 136 166.3 137 162.5 L 138 160 L 133 160 L 133 157.5 L 134 154.5 Q 130.5 153 133 151.5 L 133.5 150 Z "></path><path fill="rgb(251,251,251)" stroke="rgb(251,251,251)" stroke-width="1" opacity="1" d="M 142 156 Q 144.7 154.9 144 157.5 L 145 160 Q 147.7 158.9 147 161.5 L 153 171.5 L 150 170.5 L 149.5 172 L 142 161.5 L 142 156 Z M 144 160 L 145 164 Q 148 165 147 163 L 144 160 Z M 148 164 L 146 167 L 148 166 L 148 164 Z M 149 166 L 148 169 L 150 170 L 149 166 Z "></path><path fill="rgb(251,251,251)" stroke="rgb(251,251,251)" stroke-width="1" opacity="1" d="M 140.5 164 L 142 166.5 L 140 165.5 L 140.5 164 Z "></path><path fill="rgb(251,251,251)" stroke="rgb(251,251,251)" stroke-width="1" opacity="1" d="M 140 168 L 144 169.5 L 144.5 171 Q 145.8 168.8 147 171.5 Q 146.3 173.8 148.5 173 Q 150.8 178.2 153 174.5 L 153.5 173 L 156 178.5 L 152.5 178 Q 150.3 177.3 151 179.5 L 152 184 Q 147.5 185.8 149 180.5 L 148 176 L 145 175.5 L 146 172.5 L 145.5 171 L 142 172 L 141.5 174 L 140 168 Z "></path><path fill="rgb(251,251,251)" stroke="rgb(251,251,251)" stroke-width="1" opacity="1" d="M 156 184 Q 159.7 182.8 158 188 Q 154.3 189.2 156 184 Z "></path><path fill="rgb(251,251,251)" stroke="rgb(251,251,251)" stroke-width="1" opacity="1" d="M 156.5 189 L 157 191.5 L 150.5 198 L 149 197.5 L 147.5 200 L 142.5 201 L 142.5 200 L 144 200 Q 142.5 196.2 145.5 197 L 147.5 196 L 150.5 197 L 152 195.5 L 153.5 192 Q 157.5 193.1 156.5 189 Z "></path><path fill="rgb(251,251,251)" stroke="rgb(251,251,251)" stroke-width="1" opacity="1" d="M 137.5 200 L 139 200.5 L 136.5 202 L 137.5 200 Z "></path><path fill="rgb(251,251,251)" stroke="rgb(251,251,251)" stroke-width="1" opacity="1" d="M 269 200 L 272 201.5 L 271 204.5 L 275.5 208 L 278 208 L 279 210.5 L 277.5 210 L 269 203.5 L 269 200 Z "></path><path fill="rgb(251,251,251)" stroke="rgb(251,251,251)" stroke-width="1" opacity="1" d="M 136.5 203 L 137 204.5 L 135 205.5 L 136.5 203 Z "></path><path fill="rgb(251,251,251)" stroke="rgb(251,251,251)" stroke-width="1" opacity="1" d="M 134.5 207 L 135 209.5 L 134 209.5 L 134.5 207 Z "></path><path fill="rgb(251,251,251)" stroke="rgb(251,251,251)" stroke-width="1" opacity="1" d="M 132.5 210 L 134.5 217 L 136 216.5 L 135 218.5 L 137 219 L 136.5 222 L 136 220 L 133 218.5 Q 130.7 215.6 132.5 210 Z "></path><path fill="rgb(251,251,251)" stroke="rgb(251,251,251)" stroke-width="1" opacity="1" d="M 284.5 212 L 287 212.5 L 284.5 213 L 284.5 212 Z "></path><path fill="rgb(251,251,251)" stroke="rgb(251,251,251)" stroke-width="1" opacity="1" d="M 290.5 212 L 296.5 213 L 298.5 213 Q 301.5 212.2 300 216 L 302 216 L 302 220 L 299.5 221 L 290 221.5 L 292 222.5 L 290.5 223 L 285 220.5 L 294 219.5 Q 290.7 216.3 282.5 218 L 282.5 219 L 284 219.5 L 282.5 220 L 277 217.5 L 280 215.5 L 278.5 215 L 275.5 217 L 270 214.5 L 272.5 214 L 275.5 215 L 275.5 213 Q 280.1 212.4 281.5 215 Q 282.8 212.8 287.5 214 L 290.5 212 Z "></path><path fill="rgb(251,251,251)" stroke="rgb(251,251,251)" stroke-width="1" opacity="1" d="M 137.5 223 L 138 224.5 L 134 227.5 L 135 225 Q 137.8 226 137.5 223 Z "></path><path fill="rgb(251,251,251)" stroke="rgb(251,251,251)" stroke-width="1" opacity="1" d="M 293.5 223 L 298 224.5 L 296.5 225 L 293.5 224 L 293.5 223 Z "></path><path fill="rgb(251,251,251)" stroke="rgb(251,251,251)" stroke-width="1" opacity="1" d="M 299.5 224 L 302 225.5 L 300.5 226 L 299.5 224 Z "></path><path fill="rgb(251,251,251)" stroke="rgb(251,251,251)" stroke-width="1" opacity="1" d="M 305.5 225 L 310 225.5 L 303.5 227 L 303.5 226 L 305.5 225 Z "></path><path fill="rgb(251,251,251)" stroke="rgb(251,251,251)" stroke-width="1" opacity="1" d="M 306.5 227 L 312 228.5 L 310.5 229 L 306.5 228 L 306.5 227 Z "></path><path fill="rgb(251,251,251)" stroke="rgb(251,251,251)" stroke-width="1" opacity="1" d="M 129.5 228 L 133 228.5 L 128.5 232 L 128.5 230 L 127 229.5 L 129.5 228 Z "></path><path fill="rgb(251,251,251)" stroke="rgb(251,251,251)" stroke-width="1" opacity="1" d="M 314 228 Q 319.3 227.3 322 230.5 Q 322.7 233.1 320 232 L 319.5 230 L 317.5 231 L 317.5 229 L 314 230 L 314 228 Z "></path><path fill="rgb(251,251,251)" stroke="rgb(251,251,251)" stroke-width="1" opacity="1" d="M 125.5 232 L 127 232.5 L 124.5 234 L 125.5 232 Z "></path><path fill="rgb(251,251,251)" stroke="rgb(251,251,251)" stroke-width="1" opacity="1" d="M 120.5 233 L 123 234.5 L 120.5 236 L 120.5 233 Z "></path><path fill="rgb(251,251,251)" stroke="rgb(251,251,251)" stroke-width="1" opacity="1" d="M 328.5 234 L 334.5 237 L 336.5 236 L 336.5 238 L 339.5 237 L 340.5 239 L 339 239.5 L 344 243.5 L 342.5 244 Q 337.4 237.6 328.5 235 L 328.5 234 Z "></path><path fill="rgb(251,251,251)" stroke="rgb(251,251,251)" stroke-width="1" opacity="1" d="M 115.5 236 L 116 238 L 112.5 239 L 110 237.5 L 111.5 237 L 113.5 237 L 115.5 236 Z "></path><path fill="rgb(251,251,251)" stroke="rgb(251,251,251)" stroke-width="1" opacity="1" d="M 109.5 239 L 111 239.5 L 105.5 242 L 105 240 L 109.5 239 Z "></path><path fill="rgb(251,251,251)" stroke="rgb(251,251,251)" stroke-width="1" opacity="1" d="M 100 242 L 104 242.5 L 100.5 244 L 100 242 Z "></path><path fill="rgb(251,251,251)" stroke="rgb(251,251,251)" stroke-width="1" opacity="1" d="M 93.5 244 L 96.5 245 L 98.5 244 L 98.5 245 L 92.5 248 L 92 245.5 L 93.5 244 Z "></path><path fill="rgb(251,251,251)" stroke="rgb(251,251,251)" stroke-width="1" opacity="1" d="M 345.5 244 L 348 245.5 L 348 247.5 L 352 252.5 L 352 254.5 L 355 261.5 L 354 261.5 L 350 253.5 L 350.5 252 L 347 249.5 L 345 246.5 Q 342.8 245.3 345.5 244 Z M 346 245 L 347 247 Q 348 244 346 245 Z "></path><path fill="rgb(251,251,251)" stroke="rgb(251,251,251)" stroke-width="1" opacity="1" d="M 84.5 248 L 85 250 L 88.5 249 L 87.5 251 L 85.5 252 L 84.5 248 Z "></path><path fill="rgb(251,251,251)" stroke="rgb(251,251,251)" stroke-width="1" opacity="1" d="M 81.5 252 L 84 253.5 Q 79.3 256.8 77.5 263 L 77 260.5 L 81 255.5 L 80 253.5 L 81.5 252 Z M 81 253 L 81 255 L 83 254 L 81 253 Z "></path><path fill="rgb(251,251,251)" stroke="rgb(251,251,251)" stroke-width="1" opacity="1" d="M 355.5 263 Q 357.8 263.8 357 267.5 L 356 267.5 L 355.5 263 Z "></path><path fill="rgb(251,251,251)" stroke="rgb(251,251,251)" stroke-width="1" opacity="1" d="M 75.5 268 L 75 269.5 L 74.5 272 L 74 269.5 L 75.5 268 Z "></path><path fill="rgb(251,251,251)" stroke="rgb(251,251,251)" stroke-width="1" opacity="1" d="M 358.5 268 L 359 269.5 L 357.5 272 L 357 269.5 L 358.5 268 Z "></path><path fill="rgb(251,251,251)" stroke="rgb(251,251,251)" stroke-width="1" opacity="1" d="M 359.5 272 L 360 276 Q 366 274 364 280 L 358 280 L 358 276.5 L 359.5 272 Z "></path><path fill="rgb(251,251,251)" stroke="rgb(251,251,251)" stroke-width="1" opacity="1" d="M 73.5 273 L 74 275.5 L 73 275.5 L 73.5 273 Z "></path><path fill="rgb(251,251,251)" stroke="rgb(251,251,251)" stroke-width="1" opacity="1" d="M 72.5 277 L 73 280.5 L 72 280.5 L 72.5 277 Z "></path><path fill="rgb(251,251,251)" stroke="rgb(251,251,251)" stroke-width="1" opacity="1" d="M 359.5 281 L 360 283.5 L 359 283.5 L 359.5 281 Z "></path><path fill="rgb(251,251,251)" stroke="rgb(251,251,251)" stroke-width="1" opacity="1" d="M 68.5 283 L 70 286 Q 66.5 287.1 68.5 283 Z "></path><path fill="rgb(251,251,251)" stroke="rgb(251,251,251)" stroke-width="1" opacity="1" d="M 71.5 284 L 72 286.5 L 71 286.5 L 71.5 284 Z "></path><path fill="rgb(251,251,251)" stroke="rgb(251,251,251)" stroke-width="1" opacity="1" d="M 360.5 285 L 362.5 301 L 363.5 299 L 365 307.5 L 362.5 320 L 362 312.5 L 364 306.5 L 362 306 L 361 303.5 L 360.5 285 Z "></path><path fill="rgb(251,251,251)" stroke="rgb(251,251,251)" stroke-width="1" opacity="1" d="M 70.5 288 L 71 291.5 L 70 291.5 L 70.5 288 Z "></path><path fill="rgb(251,251,251)" stroke="rgb(251,251,251)" stroke-width="1" opacity="1" d="M 363.5 291 L 364 297.5 L 363 297.5 L 363.5 291 Z "></path><path fill="rgb(251,251,251)" stroke="rgb(251,251,251)" stroke-width="1" opacity="1" d="M 69.5 296 L 70 299.5 L 69 299.5 L 69.5 296 Z "></path><path fill="rgb(251,251,251)" stroke="rgb(251,251,251)" stroke-width="1" opacity="1" d="M 68.5 302 L 69 311.5 L 68 311.5 L 68.5 302 Z "></path><path fill="rgb(251,251,251)" stroke="rgb(251,251,251)" stroke-width="1" opacity="1" d="M 67.5 316 L 68 319.5 L 67 319.5 L 67.5 316 Z "></path><path fill="rgb(217,217,217)" stroke="rgb(217,217,217)" stroke-width="1" opacity="1" d="M 205.5 31 Q 215.5 30 219.5 35 L 232.5 36 L 244 41 Q 242.9 43.7 245.5 43 Q 255.2 50.8 260 63.5 L 275 111.5 L 278 116.5 L 278 120 Q 281.3 118.7 280 123.5 L 285 135.5 L 294.5 146 L 297 147.5 L 296.5 149 L 294.5 147 Q 289.8 148.3 288.5 146 L 288 158.5 L 285 167.5 L 272 192.5 L 269 203.5 Q 275.2 211.8 288 213.5 L 279.5 214 L 275.5 213 L 275.5 215 L 270.5 214 L 270.5 215 L 296.5 225 L 325.5 233 L 344 244 L 345 248 Q 347.7 246.9 347 249.5 L 350 252.5 L 356 264.5 L 358 272.5 L 358 279.5 L 361 292.5 L 362 320 L 68.5 320 L 68 319.5 L 68 312.5 L 69 311.5 L 70 292.5 L 74 272.5 L 78 260.5 L 84 252 L 101.5 243 L 118.5 237 L 130.5 231 L 138 224.5 L 135 215.5 L 135 206.5 L 137 203 L 147.5 200 L 157 191.5 L 158 184.5 L 157 181.5 L 146.5 171 L 146 172.5 L 146.5 174 L 132 147.5 L 132 124.5 Q 135 120.5 134 112.5 L 139 96.5 L 148 78.5 L 166.5 52 Q 168.8 52.8 168 50.5 Q 175.6 40.1 188.5 35 L 196.5 33 L 209 32.5 Q 204.6 32.9 205.5 31 Z M 138 148 L 139 153 L 140 153 Q 142 147 138 148 Z M 143 154 L 142 162 L 152 176 L 156 179 L 147 162 Q 148 159 145 160 L 143 154 Z "></path><path fill="rgb(255,255,255)" stroke="rgb(255,255,255)" stroke-width="1" opacity="1" d="M 0 0 L 401.5 0 L 402 4 L 403.5 4 L 404.5 3 L 427 3 L 427 319.5 L 426.5 320 L 363 320 L 365 304.5 L 363.5 299 L 362.5 301 L 361 285.5 L 359 280.5 L 364 280 L 364 276 Q 358.4 278.2 360 272.5 L 359 272.5 L 358.5 276 L 358 270.5 L 359 268.5 L 357 268.5 L 357 264.5 Q 354.3 263.8 355 259.5 L 350 252.5 L 350 250.5 L 347.5 245 L 346.5 247 L 340.5 240 L 339 239.5 L 341 238.5 Q 339.8 235.8 338.5 238 L 336 237.5 L 336.5 236 L 334.5 237 L 322 232 L 320.5 229 L 316.5 230 L 316.5 229 L 318 228.5 L 314.5 228 L 312.5 229 L 299.5 224 L 297.5 224 L 290 221.5 L 299.5 221 L 302 220 L 302 216 L 300 216 Q 301.5 212.3 298.5 213 L 296.5 213 L 290.5 212 L 287.5 213 L 278 209.5 Q 278.8 206.9 275.5 208 L 271 204.5 L 272 201.5 L 270.5 199 Q 273.1 199.8 272 196.5 L 277.5 185 Q 280.1 185.8 279 182.5 L 281 182.5 L 287 169.5 L 288 163.5 L 288 161.5 L 291 157.5 L 289.5 157 L 288 157.5 L 290.5 148 L 291.5 157 L 292 152 L 295.5 152 L 300.5 157 L 304.5 157 L 300 151.5 L 300 148.5 Q 303.2 149.3 302 144 L 300 144 Q 301.1 141.3 298.5 142 L 296 144.5 L 298.5 148 L 294 144.5 L 296 144 Q 297.8 139.5 292.5 141 L 288 138.5 L 283 128.5 L 284 124 Q 278 126.3 280 119.5 L 278 114.5 L 279 111.5 L 278 111.5 Q 278.7 114.1 276 113 L 275 108.5 L 275 106.5 L 272 100.5 L 273.5 98 Q 270.2 99.1 271 96.5 L 272 94 Q 269.3 95.1 270 92.5 Q 272.5 91 269 89.5 L 264 69 L 262 68.5 L 262 66.5 L 261 64.5 L 262 61 L 259 59.5 L 259 56.5 Q 256 57.5 257 52.5 L 255 52.5 L 256 50 L 253.5 50 L 247 43.5 L 248 41 L 244.5 42 L 244.5 41 L 246 40.5 L 241 38.5 Q 241.8 35.9 238.5 37 Q 237.3 34.8 232.5 36 L 229.5 34 Q 220.5 35 216 33 L 216 29 L 214.5 29 L 210.5 28 L 210.5 29 L 213 30.5 L 210.5 31 L 206.5 30 L 204.5 31 L 205 29.5 L 204.5 28 Q 203.4 30.8 200 30 Q 201.8 35.3 194.5 33 L 191.5 32 L 191.5 33 L 193 33.5 L 180 37.5 Q 182.2 38.8 179.5 40 L 175 42 Q 176.1 39.3 173.5 40 L 172 43 L 174 43.5 L 169 47.5 L 168.5 49 L 165 48 Q 163.4 50.1 164 55.5 L 159.5 60 L 156 61.5 Q 155.3 63.8 157.5 63 L 156 65.5 L 156 68 Q 151.9 66.3 153 70.5 Q 151.8 73 148 72 L 149 76.5 L 146.5 81 L 144 80 L 145 84 Q 141.2 83 140 85.5 L 141 89.5 Q 138.8 90.8 140 95.5 L 137.5 99 L 136.5 96 L 136 99.5 L 137 101.5 L 133 115.5 L 133 117.5 L 132 131.5 L 130 139.5 L 132 142.5 L 133 151.5 Q 130.5 153 134 154.5 L 133 160 L 138 160 L 138 161.5 L 137 165 Q 139.7 166.1 139 163.5 L 140 163.5 L 142 167.5 L 140 168 L 141.5 174 L 142 172 Q 145.7 170.5 145 173.5 L 145.5 176 Q 149.7 174.7 148 179.5 L 149 184 Q 153.5 185.8 152 180.5 L 151 178 L 156 180.5 L 157 183.5 L 156 187.5 L 156 189.5 Q 157.3 193.3 153.5 192 L 153.5 194 L 152 193.5 Q 152.5 197.5 149.5 198 L 146.5 196 L 144 197 Q 145.5 200.8 142.5 200 L 136 203 L 134 209.5 Q 136.5 211 135 216.5 L 134 216.5 L 132.5 210 L 132 216.5 L 134.5 220 Q 136.8 219.3 136 221.5 L 137 225 Q 134.3 223.9 135 226.5 Q 133.6 229.1 129 228.5 L 131 229.5 L 116.5 237 L 114.5 237 Q 111.1 240.7 105 240 L 105 242 L 100.5 242 L 100 244 L 97.5 244 L 93.5 246 L 92 245.5 Q 93.1 248.8 90.5 248 L 85 250 L 77 260.5 L 76 267.5 L 74 269.5 L 68 302.5 Q 69.1 313.6 67 320 L 0.5 320 L 0 319.5 L 0 0 Z M 223 32 L 223 33 L 230 33 L 223 32 Z M 170 44 L 168 47 L 171 45 L 170 44 Z M 306 225 L 306 226 L 310 226 L 306 225 Z M 69 283 Q 66 287 70 286 L 69 283 Z M 364 291 L 363 298 L 364 298 L 364 291 Z "></path><path fill="rgb(255,255,255)" stroke="rgb(255,255,255)" stroke-width="1" opacity="1" d="M 404.5 0 L 427 0.5 L 404.5 1 L 404.5 0 Z "></path><path fill="rgb(255,255,255)" stroke="rgb(255,255,255)" stroke-width="1" opacity="1" d="M 143.5 160 L 147 162.5 L 154 175.5 L 152 174.5 Q 152.7 171.9 150 173 L 150 170.5 L 147.5 166 L 146 166.5 L 147 164.5 L 145 164 L 143.5 160 Z "></path><path fill="rgb(255,255,255)" stroke="rgb(255,255,255)" stroke-width="1" opacity="1" d="M 276.5 216 L 279 216.5 L 276.5 217 L 276.5 216 Z "></path><path fill="rgb(255,255,255)" stroke="rgb(255,255,255)" stroke-width="1" opacity="1" d="M 282.5 218 Q 290.7 216.3 294 219.5 L 284.5 220 L 282.5 218 Z "></path><path fill="rgb(255,255,255)" stroke="rgb(255,255,255)" stroke-width="1" opacity="1" d="M 362 306 L 364 306.5 L 362.5 312 L 362 306 Z "></path></svg>